<svg xmlns="http://www.w3.org/2000/svg" viewBox="0 0 56.68397 39.91547">
  <g id="Layer_2" data-name="Layer 2">
    <g id="Layer_1-2" data-name="Layer 1">
      <g>
        <rect x="30.92558" y="26.84657" width="3.90361" height="13.06891"/>
        <path d="M52.996,3.01905C50.59052,1.01545,47.2605,0,43.09656,0H30.91663v15.3753H34.8202V3.67658h8.27636c3.17878,0,5.6167.69312,7.24579,2.0589a7.0462,7.0462,0,0,1,2.39258,5.76422,6.97861,6.97861,0,0,1-2.38879,5.73853c-1.62983,1.3537-4.06934,2.04-7.24958,2.04H20.63721A20.63721,20.63721,0,0,0,0,39.91547l26.553-.00225V36.01038H4.36518A16.93456,16.93456,0,0,1,20.60071,22.94367H35.02192v.0119h8.07464c4.16468,0,7.49549-1.01544,9.89942-3.0191a10.43675,10.43675,0,0,0,3.688-8.43677A10.48877,10.48877,0,0,0,52.996,3.01905Z"/>
        <path d="M4.15861,20.80959V3.9021H26.553V0H0V25.49664A24.42226,24.42226,0,0,1,4.15861,20.80959Z"/>
      </g>
    </g>
  </g>
</svg>
