<svg width="14" height="10" viewBox="0 0 14 10" fill="none" xmlns="http://www.w3.org/2000/svg">
<g clip-path="url(#clip0)">
<path d="M13.6644 0.307658C13.4505 0.111307 13.1678 0.00195313 12.8739 0.00195312C12.58 0.00195313 12.2973 0.111307 12.0834 0.307658L4.48997 7.39258L1.95136 4.81211C1.74564 4.60857 1.46807 4.48898 1.17509 4.47767C0.882102 4.46635 0.595689 4.56415 0.374068 4.75119C0.263284 4.84515 0.173263 4.96006 0.109474 5.08896C0.0456857 5.21785 0.00946116 5.35803 0.00300158 5.50099C-0.00345801 5.64395 0.0199823 5.78669 0.0718982 5.92054C0.123814 6.0544 0.203122 6.17658 0.305003 6.27965L3.63226 9.66118C3.73952 9.76813 3.86753 9.85327 4.00884 9.91164C4.15015 9.97002 4.30195 10.0005 4.45544 10.0012C4.74945 10.0027 5.03255 9.89282 5.24502 9.69482L13.6625 1.83885C13.7691 1.74015 13.8539 1.62139 13.9118 1.48978C13.9698 1.35817 13.9997 1.21646 13.9997 1.07325C13.9997 0.930043 13.9698 0.788329 13.9118 0.65672C13.8539 0.52511 13.7691 0.406351 13.6625 0.307658H13.6644Z" fill="#006FC8"/>
</g>
<defs>
<clipPath id="clip0">
<rect width="14" height="10" fill="white"/>
</clipPath>
</defs>
</svg>
