<svg xmlns="http://www.w3.org/2000/svg" width="15" height="15" fill="none" viewBox="0 0 15 15">
    <path fill="#202020" d="M.771 15c-.197 0-.395-.075-.545-.226-.301-.302-.301-.79 0-1.092L13.682.227c.302-.301.79-.301 1.092 0 .301.301.301.79 0 1.091L1.317 14.774c-.15.151-.348.226-.546.226z"/>
    <path fill="#202020" d="M14.229 15c-.198 0-.395-.075-.545-.226L.226 1.317c-.301-.301-.301-.79 0-1.091.301-.301.79-.301 1.091 0l13.457 13.456c.301.302.301.79 0 1.092-.151.151-.349.226-.545.226z"/>
</svg>
