<svg width="15" height="15" viewBox="0 0 15 15" fill="none" xmlns="http://www.w3.org/2000/svg">
<path d="M14.8193 1.36946C14.6989 1.24982 14.536 1.18259 14.3662 1.18239H12.9817V1.15639C12.9815 0.849601 12.8594 0.555472 12.6424 0.338636C12.4254 0.121801 12.1311 -1.14587e-07 11.8244 0H10.4909C10.1843 0.000264891 9.89032 0.122183 9.67351 0.33899C9.4567 0.555797 9.33479 0.849774 9.33452 1.15639V1.18539H0.640625C0.470825 1.18559 0.307968 1.25282 0.187473 1.37246C0.0998514 1.46208 0.0405608 1.57552 0.0169964 1.69863C-0.00656806 1.82173 0.00663653 1.94905 0.0549653 2.0647C0.103294 2.18035 0.184608 2.2792 0.288758 2.34893C0.392909 2.41867 0.515287 2.45619 0.640625 2.45682H9.33452V2.48583C9.33479 2.79244 9.4567 3.08642 9.67351 3.30322C9.89032 3.52003 10.1843 3.64195 10.4909 3.64221H11.8244C12.1311 3.64221 12.4254 3.52041 12.6424 3.30358C12.8594 3.08674 12.9815 2.79261 12.9817 2.48583V2.45682H14.3662C14.4926 2.45716 14.6162 2.41999 14.7214 2.35001C14.8266 2.28003 14.9087 2.1804 14.9572 2.06373C15.0057 1.94706 15.0185 1.81861 14.994 1.69466C14.9695 1.57071 14.9087 1.45683 14.8193 1.36746V1.36946ZM11.9814 2.48783C11.9811 2.52931 11.9645 2.569 11.9351 2.59824C11.9056 2.62747 11.8658 2.64388 11.8244 2.64388H10.4909C10.4495 2.64388 10.4098 2.62744 10.3806 2.59817C10.3513 2.56891 10.3349 2.52922 10.3349 2.48783V1.15639C10.3349 1.115 10.3513 1.07531 10.3806 1.04604C10.4098 1.01677 10.4495 1.00033 10.4909 1.00033H11.8244C11.8658 1.00033 11.9056 1.01674 11.9351 1.04598C11.9645 1.07522 11.9811 1.11491 11.9814 1.15639V2.48783Z" fill="#1F1F1F"/>
<path d="M14.8169 7.04751C14.7574 6.98808 14.6867 6.94098 14.609 6.90888C14.5312 6.87678 14.4479 6.86032 14.3638 6.86044H6.70223V6.83143C6.70197 6.52482 6.58005 6.23085 6.36325 6.01404C6.14644 5.79723 5.85246 5.67531 5.54585 5.67505H4.2114C3.90462 5.67505 3.61039 5.79685 3.39336 6.01369C3.17634 6.23052 3.05428 6.52465 3.05402 6.83143V6.85844H0.638213C0.468949 6.85844 0.306617 6.92568 0.186929 7.04537C0.067241 7.16506 0 7.32739 0 7.49666C0 7.66592 0.067241 7.82825 0.186929 7.94794C0.306617 8.06763 0.468949 8.13487 0.638213 8.13487H3.05402V8.16388C3.05428 8.47066 3.17634 8.76479 3.39336 8.98163C3.61039 9.19846 3.90462 9.32026 4.2114 9.32026H5.54585C5.85246 9.32 6.14644 9.19808 6.36325 8.98127C6.58005 8.76447 6.70197 8.47049 6.70223 8.16388V8.13487H14.3638C14.4901 8.13521 14.6138 8.09804 14.719 8.02806C14.8242 7.95808 14.9063 7.85845 14.9548 7.74178C15.0033 7.62511 15.0161 7.49666 14.9916 7.37271C14.967 7.24876 14.9063 7.13488 14.8169 7.04551V7.04751ZM5.7019 8.16588C5.70164 8.20719 5.68511 8.24673 5.65591 8.27593C5.6267 8.30514 5.58716 8.32167 5.54585 8.32193H4.2114C4.16992 8.32193 4.13013 8.30552 4.1007 8.27629C4.07128 8.24705 4.05462 8.20736 4.05435 8.16588V6.83143C4.05462 6.78996 4.07128 6.75026 4.1007 6.72103C4.13013 6.69179 4.16992 6.67538 4.2114 6.67538H5.54585C5.58716 6.67564 5.6267 6.69217 5.65591 6.72138C5.68511 6.75059 5.70164 6.79013 5.7019 6.83143V8.16588Z" fill="#1F1F1F"/>
<path d="M14.8149 12.7242C14.6943 12.6049 14.5315 12.538 14.3618 12.5382H11.4878V12.5092C11.4876 12.2026 11.3656 11.9086 11.1488 11.6918C10.932 11.475 10.6381 11.353 10.3314 11.3528H8.998C8.69121 11.3528 8.39698 11.4746 8.17996 11.6914C7.96293 11.9083 7.84088 12.2024 7.84061 12.5092V12.5382H0.638211C0.468947 12.5382 0.306615 12.6054 0.186927 12.7251C0.0672391 12.8448 0 13.0071 0 13.1764C0 13.3457 0.0672391 13.508 0.186927 13.6277C0.306615 13.7474 0.468947 13.8146 0.638211 13.8146H7.84061V13.8436C7.84088 14.1504 7.96293 14.4445 8.17996 14.6614C8.39698 14.8782 8.69121 15 8.998 15H10.3314C10.6381 14.9997 10.932 14.8778 11.1488 14.661C11.3656 14.4442 11.4876 14.1502 11.4878 13.8436V13.8146H14.3618C14.4881 13.8147 14.6117 13.7773 14.7168 13.7072C14.8219 13.6371 14.9039 13.5374 14.9524 13.4207C15.0009 13.304 15.0137 13.1756 14.9892 13.0516C14.9648 12.9277 14.9041 12.8137 14.8149 12.7242ZM10.4875 13.8436C10.4875 13.885 10.4711 13.9247 10.4418 13.954C10.4125 13.9832 10.3728 13.9997 10.3314 13.9997H8.998C8.95652 13.9997 8.91672 13.9833 8.8873 13.954C8.85787 13.9248 8.84121 13.8851 8.84094 13.8436V12.5092C8.84121 12.4677 8.85787 12.428 8.8873 12.3988C8.91672 12.3695 8.95652 12.3531 8.998 12.3531H10.3314C10.3728 12.3531 10.4125 12.3696 10.4418 12.3988C10.4711 12.4281 10.4875 12.4678 10.4875 12.5092V13.8436Z" fill="#1F1F1F"/>
</svg>
