<svg xmlns="http://www.w3.org/2000/svg" width="20" height="18" viewBox="0 0 20 18" fill="none">
<path d="M16.9428 8.38721C16.9045 8.31412 16.8578 8.24589 16.8037 8.18395C16.7458 8.12798 16.6779 8.08382 16.6037 8.05387L16.5876 8.04472C16.5198 8.00546 16.4405 7.99144 16.3636 8.00509H3.65478C3.56361 7.99935 3.47241 8.01573 3.38869 8.05285C3.23348 8.11895 3.11018 8.24458 3.04557 8.40246C3.01291 8.48145 2.99609 8.56627 2.99609 8.65196C2.99609 8.73764 3.01291 8.82246 3.04557 8.90146C3.07776 8.98111 3.12519 9.05348 3.18512 9.11437C3.24506 9.17525 3.31629 9.22344 3.39469 9.25614C3.46482 9.2842 3.53941 9.29901 3.61477 9.29985H3.63178H16.3366C16.4253 9.30174 16.5137 9.28621 16.5967 9.25411C16.6759 9.22236 16.7481 9.17465 16.8087 9.11386C16.8687 9.05309 16.9163 8.98091 16.9488 8.90146C17.0139 8.736 17.0117 8.55106 16.9428 8.38721Z" fill="#1F1F1F"/>
<path d="M19.9467 0.387212C19.9084 0.31412 19.8617 0.245893 19.8076 0.183953C19.7497 0.127981 19.6818 0.0838193 19.6076 0.0538671L19.5916 0.0447206C19.5237 0.0054551 19.4444 -0.00855967 19.3675 0.00508506H0.658691C0.56752 -0.000646053 0.476315 0.015726 0.392598 0.0528509C0.237383 0.118952 0.11409 0.244575 0.0494783 0.402456C0.0168209 0.481454 0 0.566275 0 0.651957C0 0.737638 0.0168209 0.82246 0.0494783 0.901457C0.0816656 0.981112 0.1291 1.05348 0.189031 1.11437C0.248961 1.17525 0.320195 1.22344 0.3986 1.25614C0.46873 1.2842 0.543312 1.29901 0.618677 1.29985H0.635683H19.3405C19.4293 1.30174 19.5176 1.28621 19.6006 1.25411C19.6798 1.22236 19.752 1.17465 19.8126 1.11386C19.8726 1.05309 19.9202 0.980911 19.9527 0.901457C20.0178 0.735998 20.0156 0.551056 19.9467 0.387212Z" fill="#1F1F1F"/>
<path d="M19.9467 16.3872C19.9084 16.3141 19.8617 16.2459 19.8076 16.184C19.7497 16.128 19.6818 16.0838 19.6076 16.0539L19.5916 16.0447C19.5237 16.0055 19.4444 15.9914 19.3675 16.0051H0.658691C0.56752 15.9994 0.476315 16.0157 0.392598 16.0529C0.237383 16.119 0.11409 16.2446 0.0494783 16.4025C0.0168209 16.4815 0 16.5663 0 16.652C0 16.7376 0.0168209 16.8225 0.0494783 16.9015C0.0816656 16.9811 0.1291 17.0535 0.189031 17.1144C0.248961 17.1753 0.320195 17.2234 0.3986 17.2561C0.46873 17.2842 0.543312 17.299 0.618677 17.2998H0.635683H19.3405C19.4293 17.3017 19.5176 17.2862 19.6006 17.2541C19.6798 17.2224 19.752 17.1747 19.8126 17.1139C19.8726 17.0531 19.9202 16.9809 19.9527 16.9015C20.0178 16.736 20.0156 16.5511 19.9467 16.3872Z" fill="#1F1F1F"/>
</svg>